<svg width="335" height="80" viewBox="0 0 335 80" fill="none" xmlns="http://www.w3.org/2000/svg">
<g clip-path="url(#clip0_2109_647)">
<path d="M181.812 50.0854C182.476 50.0854 183.118 50.1747 183.737 50.3534L184.001 50.4353L184.243 50.5215C184.472 50.607 184.669 50.6929 184.831 50.7801L185.063 50.9051L185.019 51.1645L184.741 52.834L184.275 52.5416C184.195 52.4917 184.089 52.4094 183.966 52.3082C183.702 52.099 183.307 51.9108 182.761 51.7564C182.476 51.6792 182.139 51.6379 181.746 51.6379C181.303 51.6379 180.914 51.6993 180.577 51.8161C180.236 51.9277 179.947 52.0875 179.716 52.2873C179.49 52.4895 179.316 52.7198 179.192 52.9798C179.076 53.2299 179.017 53.5045 179.017 53.8074C179.017 54.1149 179.094 54.4034 179.251 54.6781L179.32 54.7873C179.441 54.97 179.593 55.1542 179.778 55.339L180.016 55.5617L180.214 55.732C180.417 55.901 180.641 56.0708 180.887 56.2421C181.054 56.3579 181.242 56.4851 181.451 56.6235L182.143 57.0725L182.419 57.25C182.988 57.6276 183.473 57.966 183.863 58.2586L184.154 58.4863C184.343 58.641 184.522 58.8011 184.691 58.9662L184.936 59.2176L185.081 59.38C185.78 60.1932 186.148 61.0854 186.149 62.0502C186.149 62.6978 186.034 63.3084 185.802 63.8778C185.605 64.3762 185.325 64.82 184.962 65.2083L184.802 65.3721C184.341 65.8173 183.779 66.1526 183.124 66.3814C182.468 66.6181 181.731 66.7327 180.92 66.7327C179.942 66.7327 178.982 66.6154 178.042 66.38C177.624 66.2809 177.23 66.1584 176.861 66.0122L176.568 65.8958L176.99 64.0316L177.422 64.2809C178.005 64.6171 178.726 64.878 179.594 65.056L179.921 65.1149C180.257 65.1655 180.627 65.1918 181.03 65.1918C181.534 65.1918 181.975 65.11 182.358 64.954C182.749 64.7876 183.072 64.5679 183.335 64.2981L183.429 64.2011C183.631 63.9788 183.787 63.7335 183.899 63.4648L183.948 63.3419C184.053 63.065 184.102 62.8007 184.102 62.5474C184.102 61.8791 183.797 61.2142 183.111 60.5488C182.855 60.2992 182.569 60.0654 182.255 59.8484C181.936 59.624 181.489 59.3231 180.918 58.949L180.716 58.8146C180.149 58.4457 179.67 58.1188 179.281 57.8347C178.886 57.5376 178.529 57.2199 178.22 56.8879C177.424 56.0674 177.003 55.1451 177.003 54.1278C177.003 53.55 177.098 53.0106 177.293 52.5143L177.377 52.3254C177.577 51.9029 177.854 51.5326 178.206 51.2169L178.371 51.0761C179.222 50.3999 180.385 50.0855 181.812 50.0854Z" fill="#4381FF"/>
<path d="M222.738 50.8132C222.687 51.8687 222.658 52.82 222.651 53.6673C222.643 54.0091 222.639 54.5223 222.639 55.1982L222.618 57.8936C222.618 59.2637 222.765 60.4636 223.055 61.4971C223.365 62.588 223.839 63.4212 224.461 64.0194L224.588 64.1357L224.734 64.2622C225.465 64.8605 226.396 65.1695 227.552 65.1695C229.118 65.1695 230.311 64.6618 231.178 63.6724L231.361 63.4533C232.241 62.3247 232.707 60.6507 232.707 58.3757V55.551C232.707 54.3635 232.689 53.2761 232.653 52.2888L232.597 50.8053L232.587 50.4274H234.553L234.533 50.8139C234.497 51.5287 234.467 52.5246 234.445 53.8031C234.431 54.5525 234.423 55.1352 234.423 55.551V58.3649C234.423 60.8768 233.915 62.873 232.849 64.3038L232.628 64.5826C231.411 66.0308 229.647 66.7327 227.398 66.7327C225.055 66.7327 223.244 66.0014 222.04 64.4863C220.926 63.0811 220.394 61.1155 220.394 58.6408V55.6616C220.394 54.4446 220.376 53.3314 220.34 52.3218L220.285 50.8053L220.275 50.4274H222.757L222.738 50.8132Z" fill="#4381FF"/>
<path d="M247.078 50.0854C248.032 50.0854 248.925 50.1954 249.753 50.4181L250.05 50.5028C250.332 50.5869 250.573 50.671 250.771 50.755L251.056 50.8757L250.721 52.3031L250.599 52.8204L250.158 52.5244C249.685 52.2059 249.103 51.9523 248.407 51.7694C248.069 51.6833 247.671 51.6379 247.21 51.6379C246.746 51.6379 246.268 51.69 245.777 51.7952C245.418 51.8681 245.066 51.9731 244.727 52.1084L244.391 52.2536C243.34 52.7481 242.536 53.4491 241.966 54.3563C241.275 55.4414 240.92 56.7697 240.92 58.3541C240.92 59.295 241.061 60.1783 241.341 61.0057L241.453 61.311C241.724 62.0114 242.087 62.6304 242.541 63.1702L242.749 63.4015C243.243 63.9272 243.819 64.3436 244.478 64.6523L244.762 64.7758C245.435 65.0446 246.169 65.1803 246.968 65.1803C247.799 65.1802 248.55 65.034 249.228 64.7464L249.486 64.6307C249.727 64.5166 249.916 64.4072 250.058 64.3031L250.509 63.9712L250.939 65.8663L250.686 65.9971C250.123 66.2871 249.396 66.4902 248.521 66.6185C248.063 66.6955 247.521 66.7327 246.902 66.7327C245.851 66.7327 244.866 66.5841 243.951 66.2837L243.562 66.1458C242.539 65.7529 241.65 65.1808 240.899 64.4296C240.236 63.7724 239.708 63.0033 239.313 62.1264L239.152 61.7435C238.744 60.7027 238.543 59.5604 238.542 58.3211C238.542 56.9932 238.763 55.8018 239.212 54.755C239.659 53.7136 240.293 52.8325 241.116 52.1178L241.412 51.8728C242.118 51.3198 242.923 50.8963 243.822 50.6005C244.846 50.2565 245.933 50.0855 247.078 50.0854Z" fill="#4381FF"/>
<path d="M271.71 50.8132C271.659 51.8687 271.63 52.8199 271.623 53.6673C271.616 54.0091 271.612 54.5223 271.612 55.1982L271.59 57.8936C271.59 59.2638 271.738 60.4635 272.028 61.4971L272.092 61.7119C272.402 62.6981 272.853 63.4611 273.433 64.0194L273.56 64.1357L273.706 64.2622C274.437 64.8605 275.368 65.1695 276.524 65.1695C278.09 65.1695 279.283 64.6618 280.151 63.6724L280.333 63.4533C281.213 62.3247 281.679 60.6508 281.679 58.3757V55.551C281.679 54.3635 281.661 53.2762 281.625 52.2888L281.57 50.8053L281.559 50.4274H283.525L283.505 50.8139C283.469 51.5287 283.44 52.5246 283.418 53.8031C283.403 54.5525 283.395 55.1352 283.395 55.551V58.3649C283.395 60.8766 282.887 62.873 281.821 64.3038L281.6 64.5826C280.383 66.0307 278.619 66.7327 276.37 66.7327C274.027 66.7327 272.217 66.0014 271.012 64.4863C269.899 63.0811 269.367 61.1155 269.367 58.6408V55.6616C269.367 54.4446 269.349 53.3314 269.312 52.3218L269.257 50.8053L269.247 50.4274H271.729L271.71 50.8132Z" fill="#4381FF"/>
<path fill-rule="evenodd" clip-rule="evenodd" d="M147.663 50.3613C148.298 50.3613 148.867 50.4105 149.367 50.5122C149.796 50.5936 150.242 50.7533 150.704 50.9849C151.273 51.2372 151.729 51.6138 152.066 52.112L152.204 52.3354L152.31 52.5438C152.538 53.0301 152.649 53.5678 152.649 54.1501C152.649 55.316 152.3 56.2769 151.567 56.9856C151.109 57.4177 150.542 57.728 149.884 57.9209C150.207 58.1173 150.515 58.3464 150.808 58.6099C151.511 59.2366 152.061 59.9696 152.457 60.8074L152.719 61.3347C153.237 62.3588 153.715 63.1969 154.152 63.8527L154.366 64.1652L154.521 64.3786C154.821 64.7817 155.079 65.0611 155.294 65.2334L155.398 65.311L155.518 65.385L155.547 65.3994L155.556 65.4015L155.645 65.4231L156.001 65.5129L155.912 65.8692L155.857 66.0898L155.81 66.2758L155.632 66.3441C155.526 66.3849 155.417 66.4217 155.304 66.454L155.279 66.4604L155.255 66.464L155.023 66.4971L155.002 66.5007H154.981C154.629 66.5099 154.232 66.4088 153.805 66.2298L153.791 66.2241L153.779 66.2176C153.107 65.8732 152.462 65.1896 151.831 64.2277C151.348 63.4946 150.841 62.5377 150.31 61.3642L150.175 61.1005C149.857 60.5012 149.513 60.0016 149.146 59.5977L149.006 59.4504C148.68 59.1205 148.375 58.8847 148.094 58.7327C147.73 58.5272 147.382 58.4199 147.058 58.4015L146.823 58.3879L146.736 58.1688L146.311 57.0869V61.278C146.311 62.2805 146.333 63.3685 146.377 64.5416C146.406 65.1794 146.431 65.665 146.453 65.9992L146.479 66.3908H143.96L143.988 65.7737L143.989 65.7593L143.991 65.7457C143.995 65.7124 143.999 65.6271 143.999 65.4712L144 65.4583L144.044 64.1788C144.058 63.6527 144.073 62.8261 144.087 61.6975V55.5625C144.087 54.5673 144.065 53.4753 144.021 52.2873L143.938 50.4274H145.535C146.005 50.4274 146.422 50.4128 146.785 50.3843L146.8 50.3836C147.183 50.3688 147.472 50.3613 147.663 50.3613ZM147.856 51.8692C147.661 51.8693 147.533 51.8733 147.462 51.8793C147.352 51.8877 147.195 51.8908 147.003 51.8908L146.54 51.9123C146.481 51.9163 146.405 51.919 146.311 51.9209V56.9382H147.277C147.745 56.9382 148.195 56.8791 148.625 56.7629L148.633 56.7607L148.826 56.7061C149.264 56.5662 149.615 56.3383 149.889 56.0258L150.021 55.862C150.305 55.4696 150.459 54.9591 150.459 54.3046C150.459 53.3781 150.19 52.7663 149.717 52.3865L149.558 52.2744C149.164 52.0276 148.607 51.8815 147.856 51.8692Z" fill="#4381FF"/>
<path fill-rule="evenodd" clip-rule="evenodd" d="M208.969 50.3613C209.604 50.3613 210.174 50.4105 210.674 50.5122C211.097 50.5926 211.537 50.7499 211.994 50.977L212.233 51.0926C212.699 51.34 213.08 51.6807 213.372 52.112L213.511 52.3354L213.617 52.5438C213.844 53.03 213.955 53.5678 213.955 54.1501C213.955 55.316 213.606 56.2769 212.873 56.9856C212.414 57.4178 211.848 57.728 211.19 57.9209C211.513 58.1174 211.821 58.3463 212.114 58.6099C212.817 59.2366 213.367 59.9697 213.763 60.8074L214.026 61.3347C214.544 62.3586 215.021 63.1969 215.458 63.8527L215.673 64.1652L215.827 64.3786C216.128 64.7817 216.386 65.0611 216.601 65.2334L216.705 65.311L216.824 65.385L216.853 65.3994L216.863 65.4008L216.95 65.4231L217.307 65.5122L217.218 65.8692L217.163 66.0898L217.117 66.2758L216.938 66.3441C216.832 66.3849 216.722 66.4217 216.609 66.454L216.586 66.4604L216.33 66.4971L216.308 66.5007H216.287C215.935 66.5099 215.538 66.4089 215.11 66.2298L215.097 66.2241L215.084 66.2176C214.413 65.8732 213.768 65.1894 213.137 64.2277C212.653 63.4921 212.144 62.5321 211.61 61.3527C211.256 60.6386 210.868 60.0546 210.45 59.5948C210.072 59.1886 209.721 58.906 209.401 58.7327C209.036 58.5272 208.688 58.4199 208.364 58.4015L208.129 58.3879L207.756 57.4403L207.617 57.0854V61.278C207.617 62.2797 207.639 63.3667 207.683 64.5388L207.723 65.3829C207.736 65.6262 207.748 65.8318 207.759 65.9992L207.785 66.3908H205.265L205.284 66.0057L205.295 65.7737L205.296 65.7593L205.297 65.7457C205.301 65.7124 205.306 65.6271 205.306 65.4712V65.4583L205.35 64.1788C205.365 63.6527 205.379 62.8261 205.394 61.6975V55.5625C205.394 54.568 205.372 53.4772 205.328 52.2902L205.245 50.4274H206.841C207.312 50.4274 207.729 50.4128 208.092 50.3843L208.106 50.3836C208.489 50.3688 208.778 50.3613 208.969 50.3613ZM209.162 51.8692C208.968 51.8693 208.839 51.8733 208.768 51.8793C208.658 51.8877 208.501 51.8908 208.308 51.8908L207.846 51.9123C207.787 51.9163 207.711 51.919 207.617 51.9209V56.9382H208.583C209.052 56.9382 209.501 56.8792 209.932 56.7629L209.939 56.7607L210.133 56.7061C210.571 56.5662 210.921 56.3382 211.195 56.0258L211.328 55.862C211.612 55.4696 211.765 54.959 211.765 54.3046C211.765 53.3777 211.496 52.7655 211.023 52.3857C210.625 52.0716 210.021 51.8833 209.162 51.8692Z" fill="#4381FF"/>
<path fill-rule="evenodd" clip-rule="evenodd" d="M292.535 50.3613C293.17 50.3613 293.739 50.4105 294.239 50.5122C294.662 50.5926 295.102 50.7499 295.559 50.977L295.799 51.0926C296.264 51.34 296.646 51.6807 296.937 52.112L297.076 52.3354L297.182 52.5438C297.41 53.03 297.52 53.5678 297.52 54.1501C297.52 55.316 297.171 56.2769 296.438 56.9856C295.98 57.4178 295.413 57.728 294.755 57.9209C295.078 58.1174 295.387 58.3463 295.679 58.6099C296.382 59.2366 296.933 59.9697 297.329 60.8074L297.591 61.3347C298.109 62.3586 298.586 63.1969 299.023 63.8527L299.238 64.1652L299.393 64.3786C299.693 64.7817 299.951 65.0611 300.166 65.2334L300.27 65.311L300.389 65.385L300.418 65.3994L300.428 65.4008L300.516 65.4231L300.872 65.5129L300.728 66.0898L300.682 66.2758L300.503 66.3441C300.397 66.3849 300.288 66.4217 300.175 66.454L300.151 66.4604L299.895 66.4971L299.873 66.5007H299.853C299.5 66.5099 299.103 66.4089 298.676 66.2298L298.663 66.2241L298.65 66.2176C297.979 65.8732 297.333 65.1894 296.703 64.2277C296.218 63.4921 295.709 62.5321 295.176 61.3527C294.821 60.6386 294.433 60.0546 294.015 59.5948C293.637 59.1886 293.286 58.906 292.966 58.7327C292.602 58.5272 292.253 58.4199 291.93 58.4015L291.694 58.3879L291.322 57.4403L291.182 57.0854V61.278C291.182 62.2797 291.204 63.3667 291.248 64.5388L291.289 65.3829C291.302 65.6262 291.314 65.8318 291.325 65.9992L291.35 66.3908H288.831L288.849 66.0057L288.86 65.7737L288.861 65.7593L288.862 65.7457C288.867 65.7124 288.871 65.6271 288.871 65.4712V65.4583L288.915 64.1788C288.93 63.6527 288.945 62.8261 288.959 61.6975V55.5625C288.959 54.568 288.937 53.4772 288.893 52.2902L288.81 50.4274H290.407C290.877 50.4274 291.294 50.4128 291.657 50.3843L291.671 50.3836C292.054 50.3688 292.343 50.3613 292.535 50.3613ZM292.728 51.8692C292.533 51.8693 292.404 51.8733 292.333 51.8793C292.223 51.8877 292.066 51.8908 291.874 51.8908L291.411 51.9123C291.352 51.9163 291.276 51.919 291.182 51.9209V56.9382H292.149C292.617 56.9382 293.067 56.8792 293.497 56.7629L293.504 56.7607L293.698 56.7061C294.136 56.5662 294.486 56.3382 294.76 56.0258L294.893 55.862C295.177 55.4696 295.331 54.959 295.331 54.3046C295.331 53.3777 295.062 52.7655 294.589 52.3857C294.19 52.0716 293.586 51.8833 292.728 51.8692Z" fill="#4381FF"/>
<path d="M107.071 50.8146C107.035 51.5144 107.006 52.5099 106.984 53.8031C106.969 54.5674 106.962 55.1541 106.962 55.5625V61.278C106.962 62.18 106.973 63.0175 106.993 63.7902L107.017 64.5416L107.036 65.1896C107.045 65.4324 107.058 65.7042 107.072 66.005L107.091 66.3908H104.607L104.618 66.0122C104.625 65.7521 104.644 65.2606 104.673 64.5402C104.71 63.5677 104.728 62.4803 104.728 61.278V55.5625C104.728 54.3675 104.71 53.2762 104.673 52.2888L104.618 50.8053L104.608 50.4274H107.092L107.071 50.8146Z" fill="#4381FF"/>
<path d="M114.516 50.5653L119.3 56.5574L119.813 57.1975L120.541 58.0869L121.516 59.3031L121.654 59.4648C121.689 59.5079 121.72 59.546 121.745 59.579L122.83 60.9094C123.174 61.3293 123.502 61.7266 123.813 62.1005L124.378 62.7729L124.323 56.8268L124.297 55.625C124.268 54.4621 124.229 53.4113 124.18 52.4727L124.08 50.8175L124.057 50.4274H126.027V51.9475C126.012 53.0648 126.005 53.9606 126.005 54.635V54.6436C125.997 54.9555 125.994 55.4269 125.994 56.0589V61.2557C125.994 62.4247 126.002 63.3614 126.018 64.0668L126.038 64.6954C126.045 65.0717 126.063 65.5116 126.092 66.0007L126.116 66.3908H124.679L119.544 60.0107L118.628 58.8814C118.484 58.703 118.344 58.528 118.204 58.3548L118.199 58.3491C117.506 57.4865 116.844 56.6634 115.976 55.6336C115.433 54.9825 115.016 54.4913 114.727 54.1594L114.794 59.9684L114.82 61.0495C114.839 61.7605 114.863 62.4521 114.891 63.1242L114.937 64.1178L115.004 65.4863L115.025 66.0071L115.042 66.3908H113.078V66.0229C113.078 65.6601 113.086 64.9492 113.101 63.8929V63.5582L113.109 62.3915C113.111 61.9215 113.111 61.3702 113.111 60.7377V55.5402C113.111 54.1822 113.093 53.0398 113.057 52.112L112.999 50.4274H114.405L114.516 50.5653Z" fill="#4381FF"/>
<path d="M139.347 52.2399L138.942 52.1982C138.41 52.1439 137.745 52.098 136.945 52.0596L136.1 52.0237C135.469 52 134.889 51.9849 134.364 51.9755V57.1314C135.817 57.1173 136.775 57.1019 137.243 57.0819L137.97 57.0488L138.236 57.0373L138.619 57.0215V58.8247L138.227 58.7981C137.575 58.7546 136.81 58.7293 135.933 58.7219L134.364 58.7033V61.278C134.364 62.2797 134.386 63.3667 134.43 64.5388L134.471 65.3829C134.484 65.6262 134.496 65.8318 134.507 65.9992L134.533 66.3908H132.02L132.031 66.0122C132.038 65.7521 132.057 65.2606 132.086 64.5402C132.123 63.5677 132.141 62.4803 132.141 61.278V55.5625C132.141 54.568 132.119 53.4772 132.075 52.2902L131.992 50.4274H139.347V52.2399Z" fill="#4381FF"/>
<path fill-rule="evenodd" clip-rule="evenodd" d="M166.575 50.5912L171.249 62.1458C171.51 62.7808 171.75 63.3461 171.968 63.8419L172.278 64.5337L172.532 65.0934C172.634 65.3141 172.755 65.5711 172.894 65.8649L173.144 66.3908H170.293L170.118 65.8024L169.418 63.834L168.439 61.2126L168.34 60.9597C168.138 60.4185 167.952 59.9408 167.787 59.5373L167.345 59.5158L166.033 59.505H164.35C163.709 59.505 163.297 59.5087 163.107 59.5158L162.775 59.5273H162.762C162.732 59.5273 162.704 59.5277 162.678 59.528C162.504 59.9325 162.311 60.3932 162.1 60.9102L161.448 62.4791C161.318 62.7842 161.196 63.0813 161.088 63.3635L161.083 63.3764C160.908 63.7852 160.677 64.3416 160.391 65.0467L160.388 65.0553C160.318 65.2173 160.213 65.4767 160.074 65.8362L159.953 66.1537L159.864 66.3908H157.69L157.959 65.857C158.346 65.0894 158.807 64.1297 159.343 62.977L159.346 62.9705L159.592 62.4446C159.681 62.2488 159.777 62.032 159.879 61.7945L160.089 61.329L164.763 50.6911L164.85 50.4942L166.473 50.3362L166.575 50.5912ZM163.303 58.0079H166.048C166.47 58.0079 166.853 58.0032 167.197 57.9971L165.328 53.3002L163.303 58.0079Z" fill="#4381FF"/>
<path d="M201.155 52.2377L200.753 52.199C200.192 52.1445 199.529 52.098 198.763 52.0596L197.963 52.0237C197.384 52.001 196.872 51.9857 196.427 51.9763V61.278C196.427 62.18 196.437 63.0175 196.458 63.7902L196.481 64.5416L196.501 65.1896C196.51 65.4324 196.522 65.7042 196.537 66.005L196.555 66.3908H194.071L194.082 66.0122C194.09 65.7521 194.108 65.2606 194.138 64.5402C194.181 63.3676 194.204 62.2801 194.204 61.278V51.9791C193 52.0136 192.021 52.0535 191.267 52.0998L189.441 52.227V50.4274H201.155V52.2377Z" fill="#4381FF"/>
<path d="M265.713 52.2377L265.31 52.199C264.749 52.1445 264.086 52.098 263.32 52.0596L262.52 52.0237C261.941 52.0009 261.429 51.9857 260.984 51.9763V61.278C260.984 62.18 260.994 63.0175 261.014 63.7902L261.039 64.5416L261.058 65.1896C261.067 65.4324 261.079 65.7042 261.093 66.005L261.112 66.3908H258.629L258.64 66.0122C258.647 65.752 258.666 65.2606 258.695 64.5402C258.739 63.3676 258.761 62.2801 258.761 61.278V51.9791C257.557 52.0136 256.578 52.0535 255.824 52.0998L253.999 52.227V50.4274H265.713V52.2377Z" fill="#4381FF"/>
<path d="M311.728 52.2399L311.322 52.1982C310.796 52.144 310.134 52.098 309.336 52.0596L308.492 52.0237C307.86 52 307.281 51.9849 306.756 51.9755V57.0876C308.208 57.0735 309.166 57.0574 309.635 57.0373L310.362 57.0043L311.011 56.9777V58.7801L310.619 58.7543C309.967 58.7107 309.202 58.6847 308.325 58.6774L306.756 58.6594V61.278C306.756 61.8704 306.763 62.6213 306.778 63.5309L306.811 64.8319V64.8513C307.741 64.8297 308.572 64.8013 309.305 64.7636L310.09 64.7176L311.376 64.6192L311.771 64.5883V66.3908H304.401L304.412 66.0122C304.419 65.752 304.438 65.2606 304.467 64.5402C304.511 63.3676 304.533 62.2801 304.533 61.278V55.5625C304.533 54.7678 304.508 53.6775 304.456 52.2902L304.373 50.4274H311.728V52.2399Z" fill="#4381FF"/>
<path d="M334.067 37.8286H331.393V25.2841H316.588V37.8286H313.933L313.896 12.7031H316.588V23.8275L331.393 23.864V12.7031H334.031L334.067 37.8286Z" fill="white"/>
<path d="M295.435 37.8286L295.635 14.0322L287.777 14.4146V12.7031H305.893V14.4146L298.09 14.0322L298.272 37.8286H295.435Z" fill="white"/>
<path d="M283.505 37.7921C279.13 39.4763 276.683 32.7246 275.393 29.8721C274.269 27.6008 272.058 24.6467 269.045 24.6467V23.4451H269.845C272.856 23.4451 275.702 21.8718 275.702 18.4928C275.702 15.4565 273.702 13.9153 270.809 13.8682C269.753 13.8682 267.644 13.9593 267.644 13.9593L267.881 37.8285H265.007L264.971 12.703C264.971 12.703 268.644 12.5938 270.482 12.5938C274.095 12.5938 278.103 14.1245 278.103 18.2379C278.103 21.7931 275.586 23.8947 272.191 24.2097C274.687 25.0019 276.751 27.1642 277.848 29.4897C279.005 31.8542 280.565 36.6923 283.505 37.428V37.7921Z" fill="white"/>
<path d="M242.805 38.393C240.925 38.393 239.173 38.0835 237.548 37.4645C235.924 36.8333 234.511 35.9351 233.311 34.7698C232.086 33.5925 231.14 32.1845 230.473 30.5458C229.806 28.9072 229.473 27.0987 229.473 25.1202C229.473 22.2921 230.109 19.8766 231.383 17.8738C232.595 15.9682 234.232 14.5298 236.294 13.5588C238.294 12.6121 240.507 12.1387 242.932 12.1387C244.812 12.1387 246.564 12.4543 248.189 13.0854C249.826 13.7045 251.244 14.5966 252.445 15.7618C253.657 16.9392 254.597 18.3472 255.264 19.9858C255.931 21.6245 256.264 23.433 256.264 25.4115C256.264 28.2396 255.628 30.6551 254.354 32.6578C253.748 33.6046 253.027 34.4421 252.19 35.1704C251.366 35.8865 250.45 36.4874 249.444 36.9729C248.461 37.4463 247.407 37.7983 246.279 38.0289C245.151 38.2716 243.993 38.393 242.805 38.393ZM232.165 25.1748C232.165 26.777 232.407 28.3003 232.892 29.7447C233.389 31.1892 234.093 32.4515 235.002 33.5318C235.936 34.6485 237.045 35.5163 238.331 36.1354C239.628 36.7423 241.047 37.0457 242.587 37.0457C243.375 37.0457 244.187 36.9547 245.024 36.7726C245.861 36.5905 246.667 36.3174 247.443 35.9533C249.274 35.0915 250.705 33.8595 251.735 32.2573C252.96 30.3759 253.572 28.0758 253.572 25.3569C253.572 23.7547 253.324 22.2374 252.827 20.8052C252.33 19.3607 251.626 18.0923 250.717 16.9999C249.783 15.8832 248.668 15.0214 247.37 14.4145C246.085 13.7955 244.672 13.486 243.132 13.486C241.423 13.486 239.81 13.8441 238.294 14.5602C236.5 15.4098 235.075 16.6418 234.02 18.2562C232.783 20.174 232.165 22.4802 232.165 25.1748Z" fill="white"/>
<path d="M219.207 37.8286L201.874 16.7269L202.383 37.8286H200.273V12.7031H201.674L219.044 34.0962L218.534 12.7031H220.644V37.8286H219.207Z" fill="white"/>
<path d="M166.622 37.8286L166.586 12.7031H177.481V14.4146L169.278 14.0322V23.7001L176.299 23.5362V25.2295L169.278 25.0656L169.387 36.5177L177.554 36.1172V37.8286H166.622Z" fill="white"/>
<path d="M145.631 37.9379L135.191 12.7031H138.502L147.105 35.2797L156.654 12.7031H158.745L147.523 37.9379H145.631Z" fill="white"/>
<path d="M124.34 12.7031H127.178V37.8286H124.34V12.7031Z" fill="white"/>
<path d="M104.611 12.7031H115.506V14.4146L107.285 14.0322V23.7729L114.306 23.6091V25.3023L107.285 25.1384C107.285 25.1384 107.246 33.6052 107.521 37.8286H104.648L104.611 12.7031Z" fill="white"/>
<path fill-rule="evenodd" clip-rule="evenodd" d="M39.6256 12.6959V14.2398L39.0492 14.2924C38.7572 14.3189 38.4934 14.4035 38.2523 14.5507L65.8805 60.9324V15.544L65.8652 15.5114L65.7982 15.3775V15.2689C65.7896 15.2495 65.772 15.2159 65.7398 15.1674L65.718 15.1345L65.7002 15.0989C65.6281 14.9545 65.557 14.8841 65.5037 14.8484L65.4515 14.8134L65.4071 14.7689C65.3843 14.746 65.342 14.7137 65.2726 14.6765C65.2037 14.6396 65.1079 14.5979 64.9779 14.555L64.8571 14.5181C64.5406 14.4276 64.1616 14.3775 63.7127 14.3775H63.079V12.6959H70.6092V14.2951H69.9755C69.1533 14.2951 68.6509 14.4465 68.3677 14.6501C68.1234 14.826 67.9724 15.0906 67.9724 15.5577V63.4831C67.9724 63.7079 68.0047 63.9047 68.0636 64.0785C68.1094 64.1354 68.1525 64.1834 68.1925 64.2239C68.224 64.2559 68.2536 64.2832 68.2811 64.3061L68.3037 64.3242L68.3072 64.3271L68.3118 64.3303L68.326 64.3411C68.5055 64.4323 68.6719 64.5259 68.8242 64.6221C68.9708 64.6552 69.0457 64.6633 69.0691 64.6633H69.8678V66.3449H62.3373V64.6084L63.0238 64.6657L63.104 64.6703C63.3709 64.6787 63.6057 64.6125 63.8215 64.4551L36.4171 18.3716L36.2164 18.2361L36.1647 18.2018V34.7221C45.7838 41.8448 45.344 56.4398 36.1709 63.635C36.2013 63.9709 36.3367 64.1755 36.549 64.3215C36.8343 64.5178 37.3416 64.6633 38.1675 64.6633H38.8016V66.3449H31.271V66.2775C29.6587 66.8474 27.9094 67.1019 26.2059 67.1569C19.7608 67.3823 13.7354 63.6147 11.1618 57.6787C11.0151 57.3727 10.9473 57.0408 10.9473 56.6951C10.9473 56.1965 11.0558 55.7297 11.3057 55.3255C11.4454 55.0995 11.6212 54.9063 11.8265 54.7439C11.9901 54.6144 12.1723 54.5046 12.3701 54.4133L12.3782 54.4098L12.386 54.4063C12.8591 54.2033 13.3486 54.1279 13.8352 54.2253C14.3207 54.3225 14.7462 54.5804 15.1125 54.947L15.1797 55.0162C15.5102 55.367 15.7425 55.7699 15.8334 56.2256C15.9308 56.7126 15.8552 57.2026 15.6526 57.676L15.6491 57.6841L15.6453 57.6919C15.4394 58.1384 15.1396 58.506 14.7341 58.7573C14.7066 58.7743 14.6789 58.7906 14.6509 58.8064L14.6442 58.8101L14.6097 58.8287L14.5987 58.8347L14.5869 58.8409L14.5826 58.843C14.5497 58.86 14.5166 58.876 14.483 58.8912C14.3734 58.9411 14.2601 58.982 14.1436 59.0146C16.7445 63.0388 21.3653 65.3626 26.1429 65.0771C29.0445 64.8638 31.8608 63.7185 34.0728 61.825V37.0359C33.8137 36.825 33.5461 36.6201 33.27 36.4214C32.8527 36.121 32.4156 35.8348 31.9592 35.5626C29.8242 34.4178 27.5921 33.7692 25.258 33.6124C22.8666 33.5094 20.6133 33.9263 18.4891 34.8597C16.6508 35.7016 14.9173 36.6992 13.2883 37.8524L13.0924 38.0488L13.0004 38.0949L12.9705 38.1103L12.9498 38.1221L12.9267 38.1367L12.9167 38.1434L12.6182 38.4424L12.224 38.273C12.126 38.2309 12.0348 38.1903 11.9524 38.1509C11.8701 38.1117 11.7963 38.074 11.7331 38.0378C11.6726 38.0032 11.5972 37.9561 11.5286 37.8974C11.4947 37.8683 11.4427 37.8198 11.3951 37.7517C11.3886 37.7427 11.3816 37.7321 11.3744 37.7202L11.3703 37.7134C11.3561 37.6903 11.341 37.6619 11.3267 37.6291C11.2969 37.5603 11.2718 37.4712 11.2718 37.3651V37.3066L11.2823 37.249L15.8412 12.6895L39.6256 12.6959ZM36.1647 59.6057C40.6597 53.7059 41.0208 44.8723 36.1647 39.0903V59.6057ZM34.0728 17.0841C32.4621 16.4277 30.789 16.3139 28.9116 16.3139H17.3871C16.2612 22.5347 14.978 28.7265 13.8487 34.9473C16.3886 33.3341 19.1517 32.1481 22.1349 31.3896L22.1615 31.3826L22.1887 31.3783C24.8431 30.9446 27.4737 31.0626 30.0753 31.7317L30.3269 31.798L30.3444 31.8029L30.3617 31.8085C31.3808 32.1485 32.3782 32.5525 33.3543 33.0197L33.7712 33.2237L33.7825 33.2296C33.8799 33.2808 33.9768 33.3329 34.0728 33.3856V17.0841Z" fill="white"/>
<rect x="1.25" y="0.5" width="78.9182" height="79" stroke="#4381FF"/>
</g>
<defs>
<clipPath id="clip0_2109_647">
<rect width="334" height="80" fill="white" transform="translate(0.75)"/>
</clipPath>
</defs>
</svg>
